<?xml version="1.0" encoding="UTF-8" standalone="no" ?>
<!DOCTYPE svg PUBLIC "-//W3C//DTD SVG 1.1//EN" "http://www.w3.org/Graphics/SVG/1.1/DTD/svg11.dtd">
<svg xmlns="http://www.w3.org/2000/svg" xmlns:xlink="http://www.w3.org/1999/xlink" version="1.1" width="500" height="500" viewBox="0 0 500 500" xml:space="preserve">
<!-- Created with SVG Stack Editor - https://svgstack.com -->
<defs>
</defs>
<rect x="0" y="0" width="100%" height="100%" fill="transparent"></rect>
<g transform="matrix(2.54 0 0 2.54 250 250)"  >
<g style=""   >
		<g transform="matrix(1 0 0 1 0 73.02)" id="path_0" clip-path="url(#CLIPPATH_1)"  >
<clipPath id="CLIPPATH_1" >
	<rect transform="matrix(1 0 0 1 -0.39 -71.09)" id="clip0_106_2321" x="-100" y="-100" rx="0" ry="0" width="200" height="200" />
</clipPath>
<path style="stroke: none; stroke-width: 1; stroke-dasharray: none; stroke-linecap: butt; stroke-dashoffset: 0; stroke-linejoin: miter; stroke-miterlimit: 4; fill: rgb(255,153,0); fill-rule: nonzero; opacity: 1;"  transform=" translate(-100.63, -171.37)" d="M 172.415 161.745 C 91.4554 200.275 41.2109 168.039 9.04787 148.458 C 7.05763 147.224 3.67492 148.747 6.60989 152.118 C 17.325 165.11 52.4407 196.426 98.277 196.426 C 144.145 196.426 171.432 171.398 174.845 167.032 C 178.236 162.703 175.841 160.315 172.414 161.745 L 172.415 161.745 Z M 195.152 149.189 C 192.978 146.357 181.932 145.83 174.981 146.684 C 168.018 147.513 157.568 151.768 158.476 154.323 C 158.943 155.28 159.894 154.851 164.677 154.421 C 169.473 153.942 182.909 152.247 185.708 155.906 C 188.521 159.591 181.423 177.146 180.127 179.977 C 178.874 182.808 180.605 183.538 182.958 181.652 C 185.278 179.768 189.479 174.886 192.297 167.979 C 195.097 161.033 196.804 151.344 195.152 149.189 L 195.152 149.189 Z" stroke-linecap="round" />
</g>
		<g transform="matrix(1 0 0 1 2.91 -23.93)" id="path_1" clip-path="url(#CLIPPATH_2)"  >
<clipPath id="CLIPPATH_2" >
	<rect transform="matrix(1 0 0 1 -3.3 25.86)" id="clip0_106_2321" x="-100" y="-100" rx="0" ry="0" width="200" height="200" />
</clipPath>
<path style="stroke: none; stroke-width: 1; stroke-dasharray: none; stroke-linecap: butt; stroke-dashoffset: 0; stroke-linejoin: miter; stroke-miterlimit: 4; fill: rgb(255,255,255); fill-rule: evenodd; opacity: 1;"  transform=" translate(-103.54, -74.42)" d="M 117.978 83.1253 C 117.978 93.2349 118.234 101.666 113.124 110.644 C 109 117.944 102.466 122.433 95.1672 122.433 C 85.2029 122.433 79.3999 114.841 79.3999 103.637 C 79.3999 81.5189 99.2176 77.5046 117.978 77.5046 L 117.978 83.1253 Z M 144.147 146.376 C 142.431 147.908 139.949 148.018 138.015 146.996 C 129.402 139.843 127.869 136.522 123.124 129.696 C 108.89 144.223 98.8168 148.565 80.3492 148.565 C 58.5236 148.565 41.5154 135.098 41.5154 108.126 C 41.5154 87.0673 52.9398 72.7233 69.1802 65.7163 C 83.2688 59.5109 102.941 58.4162 117.978 56.7013 L 117.978 53.3433 C 117.978 47.1748 118.452 39.8755 114.84 34.5472 C 111.664 29.7658 105.605 27.7948 100.276 27.7948 C 90.3858 27.7948 81.5532 32.8677 79.3999 43.379 C 78.9614 45.7154 77.2466 48.0149 74.9109 48.1242 L 49.7271 45.4239 C 47.6107 44.9484 45.2751 43.2336 45.859 39.9847 C 51.662 9.47341 79.2168 0.275391 103.889 0.275391 C 116.517 0.275391 133.014 3.63348 142.978 13.1962 C 155.607 24.9845 154.402 40.7148 154.402 57.8323 L 154.402 98.2717 C 154.402 110.425 159.439 115.754 164.183 122.324 C 165.862 124.659 166.227 127.471 164.11 129.222 C 158.818 133.637 149.401 141.85 144.219 146.449 L 144.146 146.376" stroke-linecap="round" />
</g>
		<g transform="matrix(1 0 0 1 0 73.02)" id="path_2" clip-path="url(#CLIPPATH_3)"  >
<clipPath id="CLIPPATH_3" >
	<rect transform="matrix(1 0 0 1 -0.39 -71.09)" id="clip0_106_2321" x="-100" y="-100" rx="0" ry="0" width="200" height="200" />
</clipPath>
<path style="stroke: none; stroke-width: 1; stroke-dasharray: none; stroke-linecap: butt; stroke-dashoffset: 0; stroke-linejoin: miter; stroke-miterlimit: 4; fill: rgb(255,153,0); fill-rule: nonzero; opacity: 1;"  transform=" translate(-100.63, -171.37)" d="M 172.415 161.745 C 91.4554 200.275 41.2109 168.039 9.04787 148.458 C 7.05763 147.224 3.67492 148.747 6.60989 152.118 C 17.325 165.11 52.4407 196.426 98.277 196.426 C 144.145 196.426 171.432 171.398 174.845 167.032 C 178.236 162.703 175.841 160.315 172.414 161.745 L 172.415 161.745 Z M 195.152 149.189 C 192.978 146.357 181.932 145.83 174.981 146.684 C 168.018 147.513 157.568 151.768 158.476 154.323 C 158.943 155.28 159.894 154.851 164.677 154.421 C 169.473 153.942 182.909 152.247 185.708 155.906 C 188.521 159.591 181.423 177.146 180.127 179.977 C 178.874 182.808 180.605 183.538 182.958 181.652 C 185.278 179.768 189.479 174.886 192.297 167.979 C 195.097 161.033 196.804 151.344 195.152 149.189 L 195.152 149.189 Z" stroke-linecap="round" />
</g>
		<g transform="matrix(1 0 0 1 2.91 -23.93)" id="path_3" clip-path="url(#CLIPPATH_4)"  >
<clipPath id="CLIPPATH_4" >
	<rect transform="matrix(1 0 0 1 -3.3 25.86)" id="clip0_106_2321" x="-100" y="-100" rx="0" ry="0" width="200" height="200" />
</clipPath>
<path style="stroke: none; stroke-width: 1; stroke-dasharray: none; stroke-linecap: butt; stroke-dashoffset: 0; stroke-linejoin: miter; stroke-miterlimit: 4; fill: rgb(255,255,255); fill-rule: evenodd; opacity: 1;"  transform=" translate(-103.54, -74.42)" d="M 117.978 83.1253 C 117.978 93.2349 118.234 101.666 113.124 110.644 C 109 117.944 102.466 122.433 95.1672 122.433 C 85.2029 122.433 79.3999 114.841 79.3999 103.637 C 79.3999 81.5189 99.2176 77.5046 117.978 77.5046 L 117.978 83.1253 Z M 144.147 146.376 C 142.431 147.908 139.949 148.018 138.015 146.996 C 129.402 139.843 127.869 136.522 123.124 129.696 C 108.89 144.223 98.8168 148.565 80.3492 148.565 C 58.5236 148.565 41.5154 135.098 41.5154 108.126 C 41.5154 87.0673 52.9398 72.7233 69.1802 65.7163 C 83.2688 59.5109 102.941 58.4162 117.978 56.7013 L 117.978 53.3433 C 117.978 47.1748 118.452 39.8755 114.84 34.5472 C 111.664 29.7658 105.605 27.7948 100.276 27.7948 C 90.3858 27.7948 81.5532 32.8677 79.3999 43.379 C 78.9614 45.7154 77.2466 48.0149 74.9109 48.1242 L 49.7271 45.4239 C 47.6107 44.9484 45.2751 43.2336 45.859 39.9847 C 51.662 9.47341 79.2168 0.275391 103.889 0.275391 C 116.517 0.275391 133.014 3.63348 142.978 13.1962 C 155.607 24.9845 154.402 40.7148 154.402 57.8323 L 154.402 98.2717 C 154.402 110.425 159.439 115.754 164.183 122.324 C 165.862 124.659 166.227 127.471 164.11 129.222 C 158.818 133.637 149.401 141.85 144.219 146.449 L 144.146 146.376" stroke-linecap="round" />
</g>
</g>
</g>
<g transform="matrix(2.54 0 0 2.54 250 250)"  >
<g style=""   >
		<g transform="matrix(1 0 0 1 0 73.02)" id="path_0" clip-path="url(#CLIPPATH_5)"  >
<clipPath id="CLIPPATH_5" >
	<rect transform="matrix(1 0 0 1 -0.39 -71.09)" id="clip0_106_2321" x="-100" y="-100" rx="0" ry="0" width="200" height="200" />
</clipPath>
<path style="stroke: none; stroke-width: 1; stroke-dasharray: none; stroke-linecap: butt; stroke-dashoffset: 0; stroke-linejoin: miter; stroke-miterlimit: 4; fill: rgb(255,153,0); fill-rule: nonzero; opacity: 1;"  transform=" translate(-100.63, -171.37)" d="M 172.415 161.745 C 91.4554 200.275 41.2109 168.039 9.04787 148.458 C 7.05763 147.224 3.67492 148.747 6.60989 152.118 C 17.325 165.11 52.4407 196.426 98.277 196.426 C 144.145 196.426 171.432 171.398 174.845 167.032 C 178.236 162.703 175.841 160.315 172.414 161.745 L 172.415 161.745 Z M 195.152 149.189 C 192.978 146.357 181.932 145.83 174.981 146.684 C 168.018 147.513 157.568 151.768 158.476 154.323 C 158.943 155.28 159.894 154.851 164.677 154.421 C 169.473 153.942 182.909 152.247 185.708 155.906 C 188.521 159.591 181.423 177.146 180.127 179.977 C 178.874 182.808 180.605 183.538 182.958 181.652 C 185.278 179.768 189.479 174.886 192.297 167.979 C 195.097 161.033 196.804 151.344 195.152 149.189 L 195.152 149.189 Z" stroke-linecap="round" />
</g>
		<g transform="matrix(1 0 0 1 2.91 -23.93)" id="path_1" clip-path="url(#CLIPPATH_6)"  >
<clipPath id="CLIPPATH_6" >
	<rect transform="matrix(1 0 0 1 -3.3 25.86)" id="clip0_106_2321" x="-100" y="-100" rx="0" ry="0" width="200" height="200" />
</clipPath>
<path style="stroke: none; stroke-width: 1; stroke-dasharray: none; stroke-linecap: butt; stroke-dashoffset: 0; stroke-linejoin: miter; stroke-miterlimit: 4; fill: rgb(255,255,255); fill-rule: evenodd; opacity: 1;"  transform=" translate(-103.54, -74.42)" d="M 117.978 83.1253 C 117.978 93.2349 118.234 101.666 113.124 110.644 C 109 117.944 102.466 122.433 95.1672 122.433 C 85.2029 122.433 79.3999 114.841 79.3999 103.637 C 79.3999 81.5189 99.2176 77.5046 117.978 77.5046 L 117.978 83.1253 Z M 144.147 146.376 C 142.431 147.908 139.949 148.018 138.015 146.996 C 129.402 139.843 127.869 136.522 123.124 129.696 C 108.89 144.223 98.8168 148.565 80.3492 148.565 C 58.5236 148.565 41.5154 135.098 41.5154 108.126 C 41.5154 87.0673 52.9398 72.7233 69.1802 65.7163 C 83.2688 59.5109 102.941 58.4162 117.978 56.7013 L 117.978 53.3433 C 117.978 47.1748 118.452 39.8755 114.84 34.5472 C 111.664 29.7658 105.605 27.7948 100.276 27.7948 C 90.3858 27.7948 81.5532 32.8677 79.3999 43.379 C 78.9614 45.7154 77.2466 48.0149 74.9109 48.1242 L 49.7271 45.4239 C 47.6107 44.9484 45.2751 43.2336 45.859 39.9847 C 51.662 9.47341 79.2168 0.275391 103.889 0.275391 C 116.517 0.275391 133.014 3.63348 142.978 13.1962 C 155.607 24.9845 154.402 40.7148 154.402 57.8323 L 154.402 98.2717 C 154.402 110.425 159.439 115.754 164.183 122.324 C 165.862 124.659 166.227 127.471 164.11 129.222 C 158.818 133.637 149.401 141.85 144.219 146.449 L 144.146 146.376" stroke-linecap="round" />
</g>
		<g transform="matrix(1 0 0 1 0 73.02)" id="path_2" clip-path="url(#CLIPPATH_7)"  >
<clipPath id="CLIPPATH_7" >
	<rect transform="matrix(1 0 0 1 -0.39 -71.09)" id="clip0_106_2321" x="-100" y="-100" rx="0" ry="0" width="200" height="200" />
</clipPath>
<path style="stroke: none; stroke-width: 1; stroke-dasharray: none; stroke-linecap: butt; stroke-dashoffset: 0; stroke-linejoin: miter; stroke-miterlimit: 4; fill: rgb(255,153,0); fill-rule: nonzero; opacity: 1;"  transform=" translate(-100.63, -171.37)" d="M 172.415 161.745 C 91.4554 200.275 41.2109 168.039 9.04787 148.458 C 7.05763 147.224 3.67492 148.747 6.60989 152.118 C 17.325 165.11 52.4407 196.426 98.277 196.426 C 144.145 196.426 171.432 171.398 174.845 167.032 C 178.236 162.703 175.841 160.315 172.414 161.745 L 172.415 161.745 Z M 195.152 149.189 C 192.978 146.357 181.932 145.83 174.981 146.684 C 168.018 147.513 157.568 151.768 158.476 154.323 C 158.943 155.28 159.894 154.851 164.677 154.421 C 169.473 153.942 182.909 152.247 185.708 155.906 C 188.521 159.591 181.423 177.146 180.127 179.977 C 178.874 182.808 180.605 183.538 182.958 181.652 C 185.278 179.768 189.479 174.886 192.297 167.979 C 195.097 161.033 196.804 151.344 195.152 149.189 L 195.152 149.189 Z" stroke-linecap="round" />
</g>
		<g transform="matrix(1 0 0 1 2.91 -23.93)" id="path_3" clip-path="url(#CLIPPATH_8)"  >
<clipPath id="CLIPPATH_8" >
	<rect transform="matrix(1 0 0 1 -3.3 25.86)" id="clip0_106_2321" x="-100" y="-100" rx="0" ry="0" width="200" height="200" />
</clipPath>
<path style="stroke: none; stroke-width: 1; stroke-dasharray: none; stroke-linecap: butt; stroke-dashoffset: 0; stroke-linejoin: miter; stroke-miterlimit: 4; fill: rgb(255,255,255); fill-rule: evenodd; opacity: 1;"  transform=" translate(-103.54, -74.42)" d="M 117.978 83.1253 C 117.978 93.2349 118.234 101.666 113.124 110.644 C 109 117.944 102.466 122.433 95.1672 122.433 C 85.2029 122.433 79.3999 114.841 79.3999 103.637 C 79.3999 81.5189 99.2176 77.5046 117.978 77.5046 L 117.978 83.1253 Z M 144.147 146.376 C 142.431 147.908 139.949 148.018 138.015 146.996 C 129.402 139.843 127.869 136.522 123.124 129.696 C 108.89 144.223 98.8168 148.565 80.3492 148.565 C 58.5236 148.565 41.5154 135.098 41.5154 108.126 C 41.5154 87.0673 52.9398 72.7233 69.1802 65.7163 C 83.2688 59.5109 102.941 58.4162 117.978 56.7013 L 117.978 53.3433 C 117.978 47.1748 118.452 39.8755 114.84 34.5472 C 111.664 29.7658 105.605 27.7948 100.276 27.7948 C 90.3858 27.7948 81.5532 32.8677 79.3999 43.379 C 78.9614 45.7154 77.2466 48.0149 74.9109 48.1242 L 49.7271 45.4239 C 47.6107 44.9484 45.2751 43.2336 45.859 39.9847 C 51.662 9.47341 79.2168 0.275391 103.889 0.275391 C 116.517 0.275391 133.014 3.63348 142.978 13.1962 C 155.607 24.9845 154.402 40.7148 154.402 57.8323 L 154.402 98.2717 C 154.402 110.425 159.439 115.754 164.183 122.324 C 165.862 124.659 166.227 127.471 164.11 129.222 C 158.818 133.637 149.401 141.85 144.219 146.449 L 144.146 146.376" stroke-linecap="round" />
</g>
</g>
</g>
</svg>